<svg xmlns="http://www.w3.org/2000/svg" viewBox="0 0 800 500">
  <!-- Background: White -->
  <rect width="800" height="500" fill="#ffffff" rx="12"/>
  <rect x="1" y="1" width="798" height="498" fill="none" stroke="#000000" stroke-width="2" rx="12"/>
  
  <!-- Header Bar -->
  <rect x="20" y="20" width="760" height="50" fill="#000000" rx="8"/>
  <text x="40" y="52" font-family="system-ui, -apple-system, sans-serif" font-size="18" font-weight="700" fill="#ffffff">📊 Crypto Data</text>
  
  <!-- Navigation -->
  <text x="180" y="50" font-family="system-ui" font-size="13" fill="#ffffff">Markets</text>
  <text x="260" y="50" font-family="system-ui" font-size="13" fill="#ffffff">DeFi</text>
  <text x="320" y="50" font-family="system-ui" font-size="13" fill="#ffffff">Portfolio</text>
  <text x="400" y="50" font-family="system-ui" font-size="13" fill="#ffffff">Watchlist</text>
  
  <!-- Market Stats Row -->
  <rect x="20" y="85" width="180" height="70" fill="#ffffff" rx="8" stroke="#000000" stroke-width="1"/>
  <text x="35" y="110" font-family="system-ui" font-size="11" fill="#000000">Total Market Cap</text>
  <text x="35" y="135" font-family="system-ui" font-size="20" font-weight="700" fill="#000000">$3.42T</text>
  <text x="120" y="135" font-family="system-ui" font-size="12" fill="#000000">▲ 2.4%</text>
  
  <rect x="210" y="85" width="180" height="70" fill="#ffffff" rx="8" stroke="#000000" stroke-width="1"/>
  <text x="225" y="110" font-family="system-ui" font-size="11" fill="#000000">24h Volume</text>
  <text x="225" y="135" font-family="system-ui" font-size="20" font-weight="700" fill="#000000">$142.8B</text>
  <text x="330" y="135" font-family="system-ui" font-size="12" fill="#000000">▲ 5.1%</text>
  
  <rect x="400" y="85" width="180" height="70" fill="#ffffff" rx="8" stroke="#000000" stroke-width="1"/>
  <text x="415" y="110" font-family="system-ui" font-size="11" fill="#000000">BTC Dominance</text>
  <text x="415" y="135" font-family="system-ui" font-size="20" font-weight="700" fill="#000000">52.4%</text>
  <text x="495" y="135" font-family="system-ui" font-size="12" fill="#000000">▼ 0.3%</text>
  
  <rect x="590" y="85" width="190" height="70" fill="#ffffff" rx="8" stroke="#000000" stroke-width="1"/>
  <text x="605" y="110" font-family="system-ui" font-size="11" fill="#000000">Fear &amp; Greed</text>
  <text x="605" y="135" font-family="system-ui" font-size="20" font-weight="700" fill="#000000">72 Greed</text>
  
  <!-- Table Header -->
  <rect x="20" y="170" width="500" height="35" fill="#000000" rx="6"/>
  <text x="35" y="193" font-family="system-ui" font-size="11" font-weight="600" fill="#ffffff">#</text>
  <text x="60" y="193" font-family="system-ui" font-size="11" font-weight="600" fill="#ffffff">Name</text>
  <text x="200" y="193" font-family="system-ui" font-size="11" font-weight="600" fill="#ffffff">Price</text>
  <text x="300" y="193" font-family="system-ui" font-size="11" font-weight="600" fill="#ffffff">24h %</text>
  <text x="380" y="193" font-family="system-ui" font-size="11" font-weight="600" fill="#ffffff">Market Cap</text>
  
  <!-- Coin Rows - ALL WHITE BG, BLACK TEXT -->
  <!-- Bitcoin -->
  <rect x="20" y="210" width="500" height="45" fill="#ffffff" stroke="#000000" stroke-width="1"/>
  <text x="35" y="238" font-family="system-ui" font-size="12" fill="#000000">1</text>
  <circle cx="70" cy="232" r="12" fill="#000000"/>
  <text x="70" y="237" font-family="system-ui" font-size="10" fill="#ffffff" text-anchor="middle">₿</text>
  <text x="90" y="235" font-family="system-ui" font-size="13" font-weight="600" fill="#000000">Bitcoin</text>
  <text x="90" y="248" font-family="system-ui" font-size="10" fill="#000000">BTC</text>
  <text x="200" y="238" font-family="system-ui" font-size="13" font-weight="600" fill="#000000">$104,523</text>
  <text x="300" y="238" font-family="system-ui" font-size="12" fill="#000000">▲ 3.24%</text>
  <text x="380" y="238" font-family="system-ui" font-size="12" fill="#000000">$2.05T</text>
  
  <!-- Ethereum -->
  <rect x="20" y="255" width="500" height="45" fill="#ffffff" stroke="#000000" stroke-width="1"/>
  <text x="35" y="283" font-family="system-ui" font-size="12" fill="#000000">2</text>
  <circle cx="70" cy="277" r="12" fill="#000000"/>
  <text x="70" y="282" font-family="system-ui" font-size="10" fill="#ffffff" text-anchor="middle">Ξ</text>
  <text x="90" y="280" font-family="system-ui" font-size="13" font-weight="600" fill="#000000">Ethereum</text>
  <text x="90" y="293" font-family="system-ui" font-size="10" fill="#000000">ETH</text>
  <text x="200" y="283" font-family="system-ui" font-size="13" font-weight="600" fill="#000000">$3,842</text>
  <text x="300" y="283" font-family="system-ui" font-size="12" fill="#000000">▲ 2.18%</text>
  <text x="380" y="283" font-family="system-ui" font-size="12" fill="#000000">$462B</text>
  
  <!-- Solana -->
  <rect x="20" y="300" width="500" height="45" fill="#ffffff" stroke="#000000" stroke-width="1"/>
  <text x="35" y="328" font-family="system-ui" font-size="12" fill="#000000">3</text>
  <circle cx="70" cy="322" r="12" fill="#000000"/>
  <text x="70" y="327" font-family="system-ui" font-size="10" fill="#ffffff" text-anchor="middle">◎</text>
  <text x="90" y="325" font-family="system-ui" font-size="13" font-weight="600" fill="#000000">Solana</text>
  <text x="90" y="338" font-family="system-ui" font-size="10" fill="#000000">SOL</text>
  <text x="200" y="328" font-family="system-ui" font-size="13" font-weight="600" fill="#000000">$248.50</text>
  <text x="300" y="328" font-family="system-ui" font-size="12" fill="#000000">▼ 1.42%</text>
  <text x="380" y="328" font-family="system-ui" font-size="12" fill="#000000">$118B</text>
  
  <!-- XRP -->
  <rect x="20" y="345" width="500" height="45" fill="#ffffff" stroke="#000000" stroke-width="1"/>
  <text x="35" y="373" font-family="system-ui" font-size="12" fill="#000000">4</text>
  <circle cx="70" cy="367" r="12" fill="#000000"/>
  <text x="70" y="372" font-family="system-ui" font-size="10" fill="#ffffff" text-anchor="middle">✕</text>
  <text x="90" y="370" font-family="system-ui" font-size="13" font-weight="600" fill="#000000">XRP</text>
  <text x="90" y="383" font-family="system-ui" font-size="10" fill="#000000">XRP</text>
  <text x="200" y="373" font-family="system-ui" font-size="13" font-weight="600" fill="#000000">$3.21</text>
  <text x="300" y="373" font-family="system-ui" font-size="12" fill="#000000">▲ 5.67%</text>
  <text x="380" y="373" font-family="system-ui" font-size="12" fill="#000000">$185B</text>
  
  <!-- Cardano -->
  <rect x="20" y="390" width="500" height="45" fill="#ffffff" stroke="#000000" stroke-width="1"/>
  <text x="35" y="418" font-family="system-ui" font-size="12" fill="#000000">5</text>
  <circle cx="70" cy="412" r="12" fill="#000000"/>
  <text x="70" y="417" font-family="system-ui" font-size="10" fill="#ffffff" text-anchor="middle">₳</text>
  <text x="90" y="415" font-family="system-ui" font-size="13" font-weight="600" fill="#000000">Cardano</text>
  <text x="90" y="428" font-family="system-ui" font-size="10" fill="#000000">ADA</text>
  <text x="200" y="418" font-family="system-ui" font-size="13" font-weight="600" fill="#000000">$1.12</text>
  <text x="300" y="418" font-family="system-ui" font-size="12" fill="#000000">▲ 4.21%</text>
  <text x="380" y="418" font-family="system-ui" font-size="12" fill="#000000">$39.4B</text>
  
  <!-- Right Sidebar - Chart -->
  <rect x="535" y="170" width="245" height="180" fill="#ffffff" rx="8" stroke="#000000" stroke-width="1"/>
  <text x="550" y="195" font-family="system-ui" font-size="12" font-weight="600" fill="#000000">Bitcoin Price (7D)</text>
  <text x="710" y="195" font-family="system-ui" font-size="11" fill="#000000">▲ 8.2%</text>
  
  <!-- Chart Line -->
  <path d="M555 320 Q580 310, 600 290 T650 270 T700 250 T760 230" fill="none" stroke="#000000" stroke-width="2"/>
  
  <!-- Trending Sidebar -->
  <rect x="535" y="360" width="245" height="115" fill="#000000" rx="8"/>
  <text x="550" y="385" font-family="system-ui" font-size="12" font-weight="600" fill="#ffffff">🔥 Trending</text>
  
  <text x="550" y="410" font-family="system-ui" font-size="11" fill="#ffffff">1.</text>
  <text x="565" y="410" font-family="system-ui" font-size="11" fill="#ffffff">Pepe</text>
  <text x="720" y="410" font-family="system-ui" font-size="10" fill="#ffffff">▲ 24.5%</text>
  
  <text x="550" y="430" font-family="system-ui" font-size="11" fill="#ffffff">2.</text>
  <text x="565" y="430" font-family="system-ui" font-size="11" fill="#ffffff">Render</text>
  <text x="720" y="430" font-family="system-ui" font-size="10" fill="#ffffff">▲ 18.2%</text>
  
  <text x="550" y="450" font-family="system-ui" font-size="11" fill="#ffffff">3.</text>
  <text x="565" y="450" font-family="system-ui" font-size="11" fill="#ffffff">Sui</text>
  <text x="720" y="450" font-family="system-ui" font-size="10" fill="#ffffff">▲ 15.7%</text>
  
  <!-- Footer -->
  <text x="400" y="485" font-family="system-ui" font-size="11" fill="#000000" text-anchor="middle">Real-time data from CoinGecko &amp; DeFiLlama — No API keys required</text>
  
  <!-- Live indicator -->
  <circle cx="720" cy="45" r="4" fill="#ffffff"/>
  <text x="730" y="48" font-family="system-ui" font-size="10" fill="#ffffff">LIVE</text>
</svg>
  <rect x="535" y="170" width="245" height="180" fill="#000000" rx="8" stroke="#ffffff" stroke-width="1"/>
  <text x="550" y="195" font-family="system-ui" font-size="12" font-weight="600" fill="#ffffff">Bitcoin Price (7D)</text>
  <text x="710" y="195" font-family="system-ui" font-size="11" fill="#ffffff">▲ 8.2%</text>
  
  <!-- Chart Line -->
  <path d="M555 320 Q580 310, 600 290 T650 270 T700 250 T760 230" fill="none" stroke="#ffffff" stroke-width="2"/>
  
  <!-- Trending Sidebar -->
  <rect x="535" y="360" width="245" height="115" fill="#ffffff" rx="8"/>
  <text x="550" y="385" font-family="system-ui" font-size="12" font-weight="600" fill="#000000">🔥 Trending</text>
  
  <text x="550" y="410" font-family="system-ui" font-size="11" fill="#000000">1.</text>
  <text x="565" y="410" font-family="system-ui" font-size="11" fill="#000000">Pepe</text>
  <text x="720" y="410" font-family="system-ui" font-size="10" fill="#000000">▲ 24.5%</text>
  
  <text x="550" y="430" font-family="system-ui" font-size="11" fill="#000000">2.</text>
  <text x="565" y="430" font-family="system-ui" font-size="11" fill="#000000">Render</text>
  <text x="720" y="430" font-family="system-ui" font-size="10" fill="#000000">▲ 18.2%</text>
  
  <text x="550" y="450" font-family="system-ui" font-size="11" fill="#000000">3.</text>
  <text x="565" y="450" font-family="system-ui" font-size="11" fill="#000000">Sui</text>
  <text x="720" y="450" font-family="system-ui" font-size="10" fill="#000000">▲ 15.7%</text>
  
  <!-- Footer -->
  <text x="400" y="485" font-family="system-ui" font-size="11" fill="#ffffff" text-anchor="middle">Real-time data from CoinGecko &amp; DeFiLlama — No API keys required</text>
  
  <!-- Animated pulse on live indicator -->
  <circle cx="720" cy="45" r="4" fill="#000000">
    <animate attributeName="opacity" values="1;0.5;1" dur="2s" repeatCount="indefinite"/>
  </circle>
  <text x="730" y="48" font-family="system-ui" font-size="10" fill="#000000">LIVE</text>
</svg>